HIERARCHY
ROOT pelvis
{
  OFFSET 0 100 0
  CHANNELS 6 Xposition Yposition Zposition Zrotation Xrotation Yrotation
  JOINT pelvis_right_femur
  {
    OFFSET -10.78128 -3.44521 -0.5502486
    CHANNELS 3 Zrotation Xrotation Yrotation
    JOINT right_femur_tibia
    {
      OFFSET -0.8047443 -44.0398 -0.1307829
      CHANNELS 3 Zrotation Xrotation Yrotation
      JOINT right_tibia_foot
      {
        OFFSET 3.006224 -47.83518 -5
        CHANNELS 3 Zrotation Xrotation Yrotation
        End Site
        {
          OFFSET 0 -5 15
        }
      }
    }
  }
  JOINT pelvis_left_femur
  {
    OFFSET 10.78128 -3.44521 -0.5502486
    CHANNELS 3 Zrotation Xrotation Yrotation
    JOINT left_femur_tibia
    {
      OFFSET 0.8047443 -44.0398 -0.1307829
      CHANNELS 3 Zrotation Xrotation Yrotation
      JOINT left_tibia_foot
      {
        OFFSET -4.370144 -48.10324 -4.275266
        CHANNELS 3 Zrotation Xrotation Yrotation
        End Site
        {
          OFFSET 0 -5 15
        }
      }
    }
  }
  JOINT pelvis_spine1
  {
    OFFSET 0 6.468898 -3.129235
    CHANNELS 3 Zrotation Xrotation Yrotation
    JOINT spine1
    {
      OFFSET 0 23.15396 4.99043
      CHANNELS 3 Zrotation Xrotation Yrotation
      JOINT spine2
      {
        OFFSET 0 20.79997 -5.064912
        CHANNELS 3 Zrotation Xrotation Yrotation
        JOINT neck
        {
          OFFSET 0 14.38658 9.616178
          CHANNELS 3 Zrotation Xrotation Yrotation
          End Site
          {
            OFFSET 0 20 0
          }
        }
      }
      JOINT right_manubrium
      {
        OFFSET -5.722621 16.35077 3.967754
        CHANNELS 3 Zrotation Xrotation Yrotation
        JOINT right_clavicle
        {
          OFFSET -13.16364 1.694482 -4.693211
          CHANNELS 3 Zrotation Xrotation Yrotation
          JOINT right_humerus
          {
            OFFSET -28.5034 -0.3100689 -2.792744
            CHANNELS 3 Zrotation Xrotation Yrotation
            JOINT right_radius
            {
              OFFSET -25.15693 0.02248979 -1.271978
              CHANNELS 3 Zrotation Xrotation Yrotation
              End Site
              {
                OFFSET -15 0 0
              }
            }
          }
        }
      }
      JOINT left_manubrium
      {
        OFFSET 5.722621 16.35077 3.967754
        CHANNELS 3 Zrotation Xrotation Yrotation
        JOINT left_clavicle
        {
          OFFSET 13.16364 1.694482 -4.693211
          CHANNELS 3 Zrotation Xrotation Yrotation
          JOINT left_humerus
          {
            OFFSET 29.39168 -1.063119 -2.237045
            CHANNELS 3 Zrotation Xrotation Yrotation
            JOINT left_radius
            {
              OFFSET 24.59957 -0.9528479 0.9047498
              CHANNELS 3 Zrotation Xrotation Yrotation
              End Site
              {
                OFFSET 15 -0 -0
              }
            }
          }
        }
      }
    }
  }
}
MOTION
Frames: 9
Frame Time: 0.0416666666667
27.75524 101.2579 258.3992 -0.06672583 -0.7804612 3.285682 3.286442 11.82327 5.603681 -0 27.45831 -0 2.153794 -9.105587 -4.21034 -0.3577296 -30.72282 -4.031043 -0 27.27059 -0 -11.60201 -12.66066 16.83482 1.388888 -6.683615 10.14044 -3.185835 13.54906 -1.534983 3.185498 18.75588 3.576268 1.104354 -16.91911 6.564282 2.650809 -21.72034 15.01869 78.52539 14.62263 -6.805175 -0 0 26.08419 -28.2438 11.13846 15.02195 2.466302 -17.26571 -3.43132 -90.78405 20.15801 26.47828 0 0 -12.20675 -2.308452 6.657575 16.56414
29.16957 101.6015 265.3368 -0.06524278 -0.7691679 3.36756 2.749417 10.74867 5.54221 -0 35.75855 -0 3.902386 -4.402762 -4.026643 -1.334527 -28.18475 -5.065009 -0 29.28187 -0 -12.19367 -13.63419 15.80588 1.062515 -7.676351 9.770664 -3.151028 13.54429 -1.593699 3.279038 19.0323 3.463203 0.9723032 -16.68803 6.644986 3.206112 -20.60955 14.91886 79.92864 14.18536 -8.164328 -0 0 25.00722 -28.04421 11.09582 14.54938 2.663258 -16.90887 -3.413248 -90.64579 20.27156 25.98048 0 0 -12.02452 -2.64411 6.381866 17.09546
30.49521 102.0927 271.7656 -0.05183643 -0.6662736 4.196558 2.795592 7.23614 5.275843 -0 44.61125 -0 5.006524 -0.812193 -4.702942 -2.281037 -24.32548 -5.86102 -0 30.18403 -0 -12.46879 -15.54283 14.66517 0.8414872 -8.390172 8.996721 -3.182625 13.66136 -1.926133 3.309686 19.50716 3.381508 0.7822964 -16.48043 6.752924 3.828228 -19.62508 14.85276 81.35702 14.03031 -9.626869 -0 0 23.43992 -27.61322 11.13276 13.94302 2.754322 -16.99694 -3.54766 -89.89488 20.54436 24.69947 0 0 -12.1378 -2.837995 6.152196 17.42503
31.81361 103.2448 278.0498 -0.04163539 -0.5775367 4.91258 2.896603 -0.1123696 4.592027 -0 52.50613 -0 5.281355 -2.330656 -6.363638 -2.950171 -20.01473 -6.491385 -0 29.81743 -0 -12.71637 -17.26316 13.6763 0.5242554 -9.311997 7.924784 -3.149747 13.73124 -2.492462 3.143246 19.89688 3.515678 0.4650536 -16.54909 7.008535 4.809957 -18.58879 14.5434 82.78259 14.02861 -11.36029 -0 0 21.36828 -26.96602 11.20723 13.18631 2.6279 -17.33887 -3.750874 -88.74588 20.89181 22.82976 0 0 -12.37474 -2.95053 5.944901 17.6191
32.99647 104.5899 283.8581 -0.0316583 -0.4798176 5.702043 2.695191 -8.280994 4.412758 -0 56.97149 -0 5.339074 -4.908487 -7.814971 -3.32721 -15.82119 -7.122384 -0 28.39596 -0 -13.02645 -18.47183 12.89685 0.1707284 -9.830841 6.65453 -2.898163 13.73504 -3.306811 2.933635 20.47285 3.719833 0.1106735 -16.48209 7.340958 5.58632 -17.76464 14.2527 84.18782 14.07119 -12.95334 -0 0 19.70416 -26.33177 11.21318 12.64581 2.617229 -17.93367 -4.191006 -87.39598 21.26431 20.2461 0 0 -12.93526 -3.050552 5.763807 17.72287
34.06172 105.6137 289.0655 -0.01846714 -0.3284493 6.928485 2.629189 -14.76417 4.160894 -0 57.38257 -0 5.582193 -5.800087 -9.254586 -3.729596 -10.91835 -7.597718 -0 25.68404 -0 -13.27019 -19.50698 12.10395 -0.2721514 -9.768239 5.311903 -2.424903 13.55906 -4.472918 2.757047 20.95289 3.89994 -0.2204266 -16.33536 7.661819 5.653417 -16.99161 13.84501 85.18441 14.12534 -14.54598 -0 0 18.34145 -25.85968 11.14984 12.31587 2.978464 -18.70408 -4.826788 -86.01224 21.56984 17.03832 0 0 -13.98148 -3.131699 5.592647 17.67774
35.20519 106.2003 294.3689 -0.003455575 -0.08633779 8.896387 2.716712 -21.16386 4.877594 -0 53.4933 -0 5.338571 -6.011623 -10.14109 -3.812315 -6.525984 -8.033464 -0 22.45367 -0 -13.43327 -20.51996 11.14338 -0.7501587 -9.735708 3.974958 -1.732233 13.22363 -5.955081 2.781787 21.25902 3.950507 -0.429205 -16.2787 7.957428 5.32136 -16.15397 13.19289 86.01188 14.15228 -16.19582 -0 0 17.17451 -25.43901 11.02073 12.0501 3.554751 -19.38152 -5.446743 -84.68813 21.76073 13.66746 0 0 -15.43054 -3.151708 5.462855 17.36035
36.14326 106.1474 299.4272 0.003667442 0.1526222 10.84311 2.248331 -25.66127 5.576014 -0 46.77991 -0 4.90722 -5.233873 -10.89358 -3.622119 -2.435016 -8.381772 -0 20.04491 -0 -13.4554 -21.57693 10.06852 -1.246623 -9.395367 2.951219 -0.9885184 12.69822 -7.251238 2.95122 21.45442 3.855126 -0.5444684 -16.34979 8.167212 4.880704 -15.38128 12.53841 86.65523 14.2026 -17.70274 -0 0 16.00773 -25.01446 10.85752 11.74119 4.292824 -20.3194 -5.810883 -83.20045 21.81064 10.01749 0 0 -17.42985 -3.047069 5.411975 16.77019
37.18859 105.5543 304.7249 0.002547197 0.4175938 13.0086 1.251149 -30.69194 6.242943 -0 38.17474 -0 4.35786 -4.26893 -12.15494 -3.325843 1.400454 -8.510951 -0 18.45271 -0 -13.36086 -22.73816 9.003208 -1.497356 -9.111036 1.968761 -0.4288934 12.21159 -8.399397 3.145687 21.40515 3.748164 -0.6255781 -16.63344 8.352805 4.40318 -14.41289 11.89873 87.3516 14.27335 -19.23508 -0 0 14.52735 -24.48633 10.70877 11.24752 4.872746 -21.30381 -6.01425 -81.82466 21.74143 6.51836 0 0 -19.46731 -2.88277 5.403245 16.05108
